<?xml version="1.0" encoding="utf-8"?>
<!-- Generator: Adobe Illustrator 16.0.0, SVG Export Plug-In . SVG Version: 6.00 Build 0)  -->
<!DOCTYPE svg PUBLIC "-//W3C//DTD SVG 1.1//EN" "http://www.w3.org/Graphics/SVG/1.1/DTD/svg11.dtd">
<svg version="1.1" id="Capa_1" xmlns="http://www.w3.org/2000/svg" xmlns:xlink="http://www.w3.org/1999/xlink" x="0px" y="0px"
	 width="595.28px" height="841.89px" viewBox="0 0 595.28 841.89" enable-background="new 0 0 595.28 841.89" xml:space="preserve">
<g>
	<path fill-rule="evenodd" clip-rule="evenodd" fill="#FFFFFF" d="M315.511,382.321c-1.513,11.634-5.454,22.364-8.21,33.386
		c-0.322,1.288-0.704,2.561-1.038,3.847c-0.131,0.504-0.335,0.752-0.938,0.747c-3.67-0.034-7.341-0.032-11.011,0
		c-0.649,0.006-0.834-0.25-0.979-0.831c-2.781-11.143-5.587-22.28-8.385-33.418c-1.407-5.604-2.795-11.214-4.229-16.812
		c-0.178-0.693-0.069-0.884,0.649-0.877c3.022,0.027,6.046,0.025,9.068,0c0.611-0.005,0.868,0.174,1.014,0.799
		c2.422,10.344,5.24,20.594,7.385,31.003c0.587,2.847,0.967,5.736,1.443,8.606c0.033,0.195,0.079,0.387,0.296,0.577
		c0.29-1.742,0.569-3.485,0.874-5.225c1.072-6.129,2.938-12.06,4.567-18.048c1.517-5.576,3.082-11.139,4.584-16.718
		c0.204-0.756,0.502-1.017,1.302-1.001c2.734,0.054,5.47,0.038,8.204,0.006c0.6-0.007,0.89,0.15,1.053,0.756
		c3.095,11.506,6.663,22.884,9.438,34.478c0.454,1.897,0.755,3.831,1.294,5.754c0.294-1.961,0.59-3.922,0.881-5.884
		c0.983-6.617,2.807-13.051,4.285-19.561c1.097-4.829,2.287-9.637,3.396-14.463c0.18-0.781,0.448-1.115,1.325-1.091
		c2.554,0.068,5.111,0.078,7.664-0.001c1.048-0.032,1.147,0.261,0.913,1.19c-3.001,11.905-5.968,23.819-8.946,35.73
		c-1.175,4.701-2.378,9.396-3.514,14.106c-0.167,0.695-0.391,0.934-1.114,0.926c-3.563-0.037-7.125-0.018-10.688-0.018
		c-0.461,0-0.854,0.072-1.039-0.6c-2.637-9.585-5.329-19.155-7.962-28.741c-0.646-2.355-0.993-4.78-1.312-7.203
		C315.732,383.356,315.639,382.979,315.511,382.321z"/>
	<path fill-rule="evenodd" clip-rule="evenodd" fill="#FFFFFF" d="M520.174,382.75c0.854,12.396,0.817,24.52,0.809,36.644
		c0,0.689-0.15,0.919-0.876,0.907c-2.662-0.043-5.326-0.041-7.988-0.001c-0.704,0.01-0.897-0.187-0.896-0.896
		c0.021-16.697,0.022-33.394,0.001-50.091c0-0.767,0.219-0.961,0.964-0.953c3.238,0.038,6.477,0.026,9.716,0.005
		c0.52-0.003,0.849,0.132,1.133,0.596c6.137,10.028,12.606,19.851,18.499,30.028c0.962,1.661,1.774,3.41,2.802,5.092
		c-0.111-2.276-0.217-4.553-0.336-6.829c-0.49-9.385-0.343-18.777-0.372-28.168c-0.001-0.475,0.085-0.722,0.64-0.718
		c2.806,0.02,5.613,0.017,8.42,0c0.514-0.003,0.735,0.172,0.678,0.688c-0.02,0.178-0.004,0.36-0.004,0.54
		c0,16.517-0.011,33.034,0.026,49.551c0.003,0.997-0.286,1.179-1.198,1.161c-2.877-0.057-5.757-0.027-8.636-0.014
		c-0.492,0.002-0.845-0.06-1.148-0.553c-6.165-10.011-12.366-19.999-18.527-30.012c-1.263-2.051-2.309-4.227-3.307-6.421
		C520.518,383.187,520.42,383.089,520.174,382.75z"/>
	<path fill-rule="evenodd" clip-rule="evenodd" fill="#FFFFFF" d="M95.593,395.598c0.046-6.118,1.136-11.814,4.404-16.916
		c4.053-6.328,9.915-9.855,17.296-10.887c4.139-0.579,8.247-0.324,12.281,0.837c6.581,1.895,11.188,6.047,13.426,12.477
		c3.056,8.778,3.026,17.623-0.896,26.151c-3.474,7.553-9.593,11.937-17.739,13.433c-4.746,0.872-9.471,0.574-14.061-0.92
		c-7.203-2.345-11.47-7.466-13.476-14.632C95.941,401.969,95.65,398.719,95.593,395.598z M134.328,394.623
		c-0.06-3.407-0.389-6.431-1.429-9.346c-1.953-5.47-5.938-8.396-11.961-8.761c-5.407-0.328-10.167,2.364-12.489,7.361
		c-2.918,6.278-2.758,12.793-0.741,19.254c1.692,5.417,5.902,8.63,11.119,8.931c6.336,0.366,10.869-2.155,13.474-7.503
		C133.881,401.313,134.28,397.833,134.328,394.623z"/>
	<path fill-rule="evenodd" clip-rule="evenodd" fill="#FFFFFF" d="M450.616,405.446c-0.001,3.851-0.005,7.702,0.002,11.553
		c0.001,0.478,0.015,0.875-0.581,1.08c-8.824,3.016-17.815,4.209-26.915,1.64c-9.315-2.63-14.54-9.139-16.131-18.561
		c-1.093-6.479-0.573-12.86,2.182-18.902c3.485-7.642,9.659-11.962,17.694-13.766c7.021-1.577,14.006-1.012,20.942,0.654
		c0.525,0.126,0.767,0.352,0.76,0.947c-0.031,2.735-0.024,5.471-0.004,8.206c0.006,0.675-0.157,0.776-0.811,0.536
		c-5.027-1.853-10.211-2.595-15.568-2.183c-7.601,0.584-13.284,5.85-14.435,13.408c-0.666,4.38-0.518,8.692,1.16,12.835
		c2.178,5.376,6.368,8.155,11.99,8.946c2.878,0.405,5.731,0.215,8.574-0.4c0.906-0.197,1.172-0.58,1.163-1.506
		c-0.049-5.29-0.007-10.582-0.042-15.872c-0.006-0.786,0.16-1.046,0.995-1.029c2.698,0.058,5.399,0.052,8.098,0.003
		c0.773-0.014,0.951,0.223,0.944,0.964C450.598,397.815,450.617,401.631,450.616,405.446z"/>
	<path fill-rule="evenodd" clip-rule="evenodd" fill="#FFFFFF" d="M376.875,368.374c1.8,0,3.602,0.056,5.397-0.023
		c0.885-0.039,1.237,0.265,1.512,1.086c4.106,12.287,8.248,24.563,12.382,36.84c1.467,4.354,2.912,8.715,4.424,13.053
		c0.307,0.879,0.086,0.982-0.735,0.971c-3.022-0.043-6.046-0.042-9.068,0c-0.751,0.011-1.104-0.185-1.333-0.946
		c-0.921-3.059-1.948-6.086-2.88-9.142c-0.224-0.735-0.527-1.006-1.332-1.001c-5.865,0.04-11.731,0.037-17.598,0.001
		c-0.785-0.005-1.097,0.247-1.326,0.984c-0.958,3.085-2.005,6.142-2.98,9.221c-0.201,0.636-0.467,0.897-1.183,0.885
		c-2.771-0.05-5.542-0.037-8.313-0.009c-0.687,0.007-0.942-0.053-0.669-0.857c3.308-9.756,6.582-19.523,9.863-29.288
		c2.32-6.909,4.658-13.812,6.932-20.736c0.281-0.856,0.659-1.092,1.511-1.061C373.275,368.421,375.076,368.374,376.875,368.374z
		 M376.434,377.407c-1.868,8.138-5,15.854-7.407,23.831c5.002,0,9.92,0,14.916,0C381.493,393.241,378.385,385.515,376.434,377.407z"
		/>
	<path fill-rule="evenodd" clip-rule="evenodd" fill="#FFFFFF" d="M235.699,420.284c-4.132,0-8.053-0.012-11.974,0.014
		c-0.551,0.004-0.745-0.343-0.993-0.683c-5.408-7.409-10.814-14.82-16.222-22.229c-0.424-0.581-0.861-1.152-1.305-1.747
		c-0.328,0.267-0.166,0.61-0.167,0.897c-0.009,7.522-0.028,15.045,0.022,22.567c0.007,1.027-0.311,1.223-1.251,1.201
		c-2.626-0.062-5.254-0.042-7.882-0.008c-0.671,0.008-0.929-0.135-0.928-0.877c0.021-16.737,0.021-33.475,0.003-50.211
		c0-0.672,0.203-0.854,0.859-0.847c2.735,0.032,5.472,0.05,8.206-0.01c0.853-0.019,0.986,0.272,0.982,1.041
		c-0.03,6.767-0.018,13.534-0.018,20.3c0,0.611,0,1.222,0,1.923c0.45-0.16,0.592-0.543,0.803-0.825
		c5.367-7.171,10.732-14.343,16.072-21.533c0.473-0.637,0.952-0.922,1.773-0.908c3.203,0.053,6.407,0.017,9.61,0.027
		c0.3,0.001,0.726-0.173,0.873,0.167c0.139,0.323-0.252,0.553-0.44,0.795c-5.86,7.565-11.715,15.134-17.608,22.673
		c-0.614,0.785-0.74,1.278-0.066,2.163c6.404,8.417,12.745,16.882,19.103,25.334C235.298,419.707,235.434,419.91,235.699,420.284z"
		/>
	<path fill-rule="evenodd" clip-rule="evenodd" fill="#FFFFFF" d="M67.41,411.088c0.375-1.47,0.687-2.714,1.01-3.955
		c2.548-9.803,6.035-19.311,9.106-28.949c0.948-2.974,1.956-5.929,2.874-8.912c0.223-0.723,0.553-0.928,1.283-0.917
		c2.806,0.043,5.613,0.049,8.419-0.001c0.875-0.016,0.913,0.249,0.669,0.974c-5.632,16.732-11.25,33.47-16.856,50.212
		c-0.188,0.563-0.446,0.766-1.064,0.761c-3.814-0.033-7.628-0.038-11.441,0.003c-0.684,0.007-0.907-0.265-1.101-0.843
		c-5.603-16.667-11.214-33.33-16.856-49.983c-0.324-0.956-0.121-1.135,0.821-1.121c3.022,0.046,6.045,0.027,9.067,0.006
		c0.556-0.004,0.928,0.079,1.12,0.694c3.414,10.924,7.149,21.745,10.417,32.715C65.768,404.763,66.519,407.795,67.41,411.088z"/>
	<path fill-rule="evenodd" clip-rule="evenodd" fill="#FFFFFF" d="M466.061,394.329c0-8.278,0.015-16.556-0.021-24.834
		c-0.003-0.887,0.21-1.146,1.121-1.143c9.718,0.034,19.436,0.033,29.153,0.004c0.864-0.003,1.188,0.167,1.152,1.104
		c-0.076,2.049-0.07,4.104-0.005,6.153c0.028,0.878-0.182,1.15-1.106,1.144c-6.369-0.043-12.74-0.004-19.11-0.043
		c-0.904-0.005-1.226,0.148-1.206,1.154c0.073,3.598,0.053,7.198,0.01,10.796c-0.009,0.771,0.217,0.947,0.962,0.943
		c5.902-0.031,11.806-0.002,17.708-0.036c0.779-0.004,1.062,0.142,1.032,0.989c-0.068,2.013-0.062,4.031-0.003,6.045
		c0.023,0.797-0.175,1.021-1.001,1.016c-5.866-0.04-11.732,0.001-17.599-0.045c-0.917-0.007-1.114,0.241-1.104,1.124
		c0.052,3.995,0.051,7.99,0,11.984c-0.01,0.838,0.241,0.989,1.021,0.985c6.514-0.032,13.028-0.005,19.543-0.036
		c0.807-0.004,1.109,0.151,1.082,1.041c-0.072,2.265-0.053,4.534-0.007,6.801c0.014,0.689-0.206,0.824-0.854,0.823
		c-9.934-0.021-19.867-0.027-29.8,0.005c-0.847,0.003-0.989-0.259-0.987-1.034C466.071,410.956,466.061,402.643,466.061,394.329z"/>
	<path fill-rule="evenodd" clip-rule="evenodd" fill="#FFFFFF" d="M242.49,414.941c0-1.332,0.023-2.664-0.01-3.995
		c-0.017-0.659,0.173-0.796,0.799-0.574c3.479,1.234,7.08,1.857,10.761,2.039c1.771,0.087,3.528-0.039,5.226-0.576
		c2.202-0.696,3.794-2.033,4.287-4.396c0.518-2.487-0.239-4.534-2.219-6.129c-1.531-1.233-3.308-2.018-5.089-2.791
		c-2.667-1.157-5.383-2.204-7.895-3.7c-4.967-2.957-7.249-7.321-6.881-13.067c0.354-5.536,3.209-9.408,8.084-11.86
		c3.443-1.732,7.151-2.312,10.968-2.367c2.924-0.042,5.814,0.273,8.698,0.718c0.632,0.098,0.911,0.319,0.896,1.031
		c-0.051,2.338-0.054,4.679-0.003,7.017c0.019,0.849-0.251,0.93-0.993,0.743c-3.641-0.918-7.317-1.525-11.093-1.041
		c-1.116,0.144-2.182,0.451-3.186,0.953c-3.374,1.687-4.055,5.948-1.379,8.614c1.405,1.4,3.177,2.208,4.953,2.998
		c3.116,1.386,6.289,2.625,9.26,4.346c9.795,5.675,8.565,20.517-1.018,25.502c-3.228,1.679-6.649,2.507-10.234,2.675
		c-4.328,0.202-8.612-0.208-12.855-1.135c-0.925-0.202-1.138-0.588-1.087-1.445c0.07-1.184,0.018-2.374,0.018-3.562
		C242.493,414.941,242.492,414.941,242.49,414.941z"/>
	<path fill-rule="evenodd" clip-rule="evenodd" fill="#FFFFFF" d="M156.39,394.256c0-8.278,0.013-16.556-0.019-24.833
		c-0.003-0.85,0.22-1.088,1.071-1.069c2.554,0.057,5.112,0.072,7.665-0.005c1.019-0.031,1.314,0.205,1.311,1.275
		c-0.042,13.497-0.031,26.993-0.023,40.49c0.001,1.646-0.285,1.479,1.491,1.481c5.471,0.006,10.942,0.026,16.412-0.025
		c0.935-0.009,1.121,0.274,1.097,1.142c-0.062,2.266-0.042,4.535-0.007,6.802c0.009,0.618-0.177,0.783-0.787,0.782
		c-9.142-0.018-18.284-0.027-27.425,0.01c-0.883,0.003-0.788-0.449-0.787-1C156.391,410.957,156.389,402.606,156.39,394.256z"/>
	<path fill-rule="evenodd" clip-rule="evenodd" fill="#FFFFFF" d="M501.253,461.137c0,3.533,0.001,7.044,0,10.556
		c0,1.191-0.679,1.656-1.798,1.275c-0.365-0.124-0.274-0.378-0.275-0.603c-0.006-4.679,0.001-9.356-0.01-14.035
		c-0.001-0.44,0.102-0.601,0.59-0.645c1.203-0.107,2.019,0.19,2.69,1.349c2.005,3.461,4.333,6.726,6.292,10.217
		c0-3.085,0-6.124,0-9.163c0-0.396,0.054-0.801-0.009-1.186c-0.171-1.045,0.311-1.244,1.255-1.227
		c0.762,0.014,0.862,0.288,0.859,0.942c-0.024,4.391-0.003,8.781-0.03,13.172c-0.003,0.389,0.355,1.111-0.351,1.135
		c-0.738,0.025-1.616,0.438-2.212-0.553c-1.405-2.339-2.898-4.624-4.347-6.937C503.016,464.01,502.14,462.573,501.253,461.137z"/>
	<path fill-rule="evenodd" clip-rule="evenodd" fill="#FFFFFF" d="M276.678,469.238c0-2.504,0.001-4.855,0-7.207
		c-0.001-1.187,0.058-2.377-0.031-3.558c-0.068-0.908,0.478-0.786,1.008-0.767c0.484,0.019,1.063-0.232,1.055,0.71
		c-0.042,4.602-0.016,9.204-0.027,13.807c-0.001,0.272,0.186,0.754-0.348,0.727c-0.702-0.036-1.491,0.319-2.031-0.537
		c-1.395-2.213-2.855-4.385-4.261-6.591c-1.013-1.589-1.98-3.207-2.927-4.744c0,1.504-0.004,3.062,0.001,4.619
		c0.007,2.156-0.029,4.315,0.052,6.47c0.041,1.091-0.665,0.74-1.203,0.804c-0.632,0.073-0.955-0.042-0.948-0.832
		c0.041-4.53,0.032-9.062,0.004-13.591c-0.004-0.669,0.213-0.806,0.853-0.87c1.144-0.115,1.807,0.276,2.401,1.283
		c1.971,3.336,4.216,6.504,6.117,9.886C276.456,468.957,276.543,469.055,276.678,469.238z"/>
	<path fill-rule="evenodd" clip-rule="evenodd" fill="#FFFFFF" d="M491.271,465.513c0.012,2.564-0.886,5.19-3.646,6.744
		c-4.976,2.8-10.029-0.24-10.411-6.188c-0.233-3.626,1.482-6.839,4.333-7.973C485.505,456.522,491.289,457.783,491.271,465.513z
		 M479.453,465.181c0.026,0.502,0.03,1.006,0.081,1.505c0.26,2.526,1.857,4.367,3.948,4.567c2.582,0.247,4.495-0.918,5.22-3.308
		c0.542-1.786,0.525-3.61-0.085-5.394c-0.694-2.028-2.135-3.121-4.128-3.175c-2.101-0.058-3.733,1.011-4.539,2.966
		C479.575,463.252,479.459,464.205,479.453,465.181z"/>
	<path fill-rule="evenodd" clip-rule="evenodd" fill="#FFFFFF" d="M141.952,465.144c0,3.886-1.858,6.734-5.014,7.696
		c-4.762,1.452-8.851-1.47-9.021-6.43c-0.065-1.892,0.095-3.73,1.067-5.408c1.616-2.792,4.786-4.077,8.072-3.284
		c2.932,0.706,4.742,3.171,4.895,6.671C141.962,464.64,141.952,464.892,141.952,465.144z M134.902,471.282
		c2.042,0.001,3.547-1.023,4.306-2.941c0.699-1.767,0.698-3.566,0.205-5.376c-0.627-2.3-2.171-3.562-4.359-3.589
		c-2.242-0.028-3.893,1.214-4.598,3.473c-0.576,1.847-0.48,3.69,0.161,5.489C131.308,470.28,132.824,471.28,134.902,471.282z"/>
	<path fill-rule="evenodd" clip-rule="evenodd" fill="#FFFFFF" d="M316.453,465.3c0-2.263-0.006-4.526,0.006-6.79
		c0.001-0.317-0.17-0.77,0.438-0.775c2.292-0.023,4.597-0.319,6.863,0.251c3.159,0.797,4.819,2.94,5.003,6.411
		c0.276,5.236-2.662,8.446-7.902,8.603c-1.22,0.036-2.443-0.045-3.663-0.008c-0.624,0.02-0.773-0.192-0.765-0.794
		c0.035-2.298,0.014-4.598,0.014-6.897C316.449,465.3,316.451,465.3,316.453,465.3z M318.563,465.318
		c0,1.688,0.004,3.374-0.003,5.062c-0.002,0.414-0.008,0.731,0.554,0.842c3.874,0.76,6.994-1.276,7.375-5.078
		c0.415-4.136-1.322-6.771-5.813-6.766c-0.467,0-0.936,0.052-1.398,0.018c-0.583-0.043-0.733,0.213-0.726,0.755
		C318.577,461.872,318.562,463.596,318.563,465.318z"/>
	<path fill-rule="evenodd" clip-rule="evenodd" fill="#FFFFFF" d="M416.961,464.9c2.172,0.959,2.817,1.842,2.754,3.756
		c-0.058,1.773-1.187,3.223-3.044,3.9c-2.095,0.764-4.269,0.327-6.408,0.414c-0.391,0.016-0.336-0.293-0.336-0.532
		c-0.003-4.707-0.002-9.414-0.005-14.12c0-0.355,0.032-0.64,0.502-0.631c1.826,0.03,3.657-0.213,5.479,0.137
		c1.687,0.323,2.938,1.098,3.273,2.931c0.29,1.584-0.352,2.914-1.951,3.962C417.138,464.773,417.054,464.836,416.961,464.9z
		 M411.981,468.572c0,0.684,0.001,1.366,0,2.05c0,0.292-0.028,0.622,0.392,0.622c1.248,0.002,2.52,0.245,3.711-0.354
		c1.006-0.506,1.48-1.339,1.44-2.44c-0.042-1.128-0.625-1.892-1.721-2.199c-0.549-0.153-1.115-0.268-1.682-0.326
		c-2.139-0.222-2.14-0.21-2.14,1.894C411.982,468.069,411.982,468.321,411.981,468.572z M411.982,461.787
		c0,2.83,0.269,3.044,2.98,2.367c1.448-0.361,2.165-1.261,2.063-2.591c-0.101-1.324-0.97-2.098-2.466-2.194
		C411.981,459.203,411.981,459.203,411.982,461.787z"/>
	<path fill-rule="evenodd" clip-rule="evenodd" fill="#FFFFFF" d="M385.928,466.155c1.642,2.268,3.229,4.462,4.931,6.813
		c-0.881,0-1.552-0.022-2.22,0.007c-0.514,0.023-0.652-0.379-0.87-0.688c-1.239-1.762-2.488-3.518-3.691-5.304
		c-0.328-0.487-0.714-0.738-1.247-0.57c-0.536,0.17-0.243,0.683-0.251,1.023c-0.035,1.581-0.056,3.165,0.003,4.745
		c0.027,0.718-0.258,0.904-0.867,0.78c-0.492-0.101-1.294,0.421-1.288-0.711c0.026-4.603,0.019-9.204,0.004-13.807
		c-0.001-0.49,0.126-0.736,0.646-0.74c1.687-0.01,3.378-0.221,5.056,0.097c2.418,0.457,3.525,1.626,3.646,3.811
		c0.117,2.117-0.958,3.594-3.139,4.311C386.437,465.989,386.232,466.056,385.928,466.155z M382.556,462.044
		c0,0.718,0.002,1.436-0.001,2.153c0,0.295-0.023,0.592,0.414,0.578c0.963-0.03,1.935,0.107,2.876-0.234
		c1.337-0.484,1.979-1.693,1.677-3.202c-0.3-1.488-2.167-2.402-4.477-1.916c-1.132,0.238-0.208,1.398-0.48,2.086
		C382.504,461.664,382.556,461.864,382.556,462.044z"/>
	<path fill-rule="evenodd" clip-rule="evenodd" fill="#FFFFFF" d="M116.708,466.147c1.635,2.256,3.211,4.432,4.799,6.622
		c-1.744,0.528-2.409,0.313-3.339-1.034c-1.083-1.565-2.179-3.122-3.25-4.694c-0.307-0.45-0.661-0.807-1.229-0.632
		c-0.603,0.185-0.299,0.743-0.308,1.116c-0.042,1.545-0.07,3.096,0.006,4.639c0.053,1.082-0.664,0.741-1.208,0.809
		c-0.658,0.081-0.929-0.089-0.922-0.848c0.039-4.496,0.03-8.993,0.004-13.489c-0.004-0.662,0.113-0.973,0.865-0.952
		c1.648,0.044,3.302-0.2,4.944,0.146c2.2,0.464,3.401,1.693,3.507,3.616c0.123,2.24-0.941,3.773-3.09,4.453
		C117.247,465.974,117.009,466.052,116.708,466.147z M113.369,462.104c0,0.717,0,1.434,0,2.15c0,0.25-0.04,0.521,0.345,0.516
		c1.102-0.014,2.22,0.148,3.265-0.388c1.169-0.599,1.7-1.882,1.286-3.184c-0.458-1.439-2.037-2.196-4.362-1.776
		c-1.116,0.202-0.31,1.354-0.524,2.039C113.317,461.658,113.369,461.89,113.369,462.104z"/>
	<path fill-rule="evenodd" clip-rule="evenodd" fill="#FFFFFF" d="M101.675,460.042c-1.218-0.272-2.403-0.678-3.675-0.681
		c-3.676-0.009-5.79,1.762-6.042,5.409c-0.342,4.941,2.84,7.331,7.629,6.306c0.603-0.129,0.617-0.463,0.614-0.921
		c-0.008-1.401,0.059-2.807-0.021-4.204c-0.058-1.023,0.604-0.724,1.118-0.754c0.545-0.033,1.022-0.127,0.981,0.769
		c-0.085,1.865-0.031,3.737-0.022,5.606c0.002,0.409,0.009,0.753-0.508,0.896c-2.274,0.63-4.561,0.999-6.899,0.402
		c-3.014-0.77-4.78-2.918-5.133-6.158c-0.238-2.19,0.311-4.239,1.423-6.056c1.374-2.243,3.658-3,6.178-3.081
		c0.929-0.029,1.875,0.009,2.792,0.153C101.949,458.02,101.942,458.059,101.675,460.042z"/>
	<path fill-rule="evenodd" clip-rule="evenodd" fill="#FFFFFF" d="M246.505,472.885c1.244-3.486,2.479-6.956,3.72-10.424
		c0.469-1.312,0.993-2.606,1.408-3.935c0.197-0.628,0.487-0.824,1.136-0.815c1.693,0.022,1.697-0.013,2.28,1.617
		c1.506,4.213,3.009,8.428,4.512,12.643c0.106,0.298,0.193,0.603,0.287,0.895c-0.074,0.039-0.102,0.065-0.131,0.068
		c-2.121,0.172-2.121,0.172-2.816-1.848c-0.609-1.768-0.609-1.768-2.455-1.767c-1.295,0-2.59,0.018-3.885-0.011
		c-0.509-0.011-0.795,0.116-0.895,0.665c-0.083,0.452-0.293,0.882-0.444,1.322C248.597,473.115,248.597,473.115,246.505,472.885z
		 M253.104,459.976c-0.815,2.35-1.602,4.604-2.379,6.863c-0.112,0.327-0.485,0.788,0.297,0.79c1.434,0.002,2.868-0.001,4.301,0.001
		c0.318,0,0.446-0.08,0.316-0.443C254.791,464.81,253.963,462.426,253.104,459.976z"/>
	<path fill-rule="evenodd" clip-rule="evenodd" fill="#FFFFFF" d="M299.195,472.896c-2.196,0.222-2.196,0.222-2.861-1.778
		c-0.597-1.799-0.597-1.799-2.558-1.798c-1.186,0-2.376,0.06-3.557-0.021c-0.773-0.054-1.07,0.247-1.249,0.94
		c-0.188,0.724-0.54,1.403-0.735,2.125c-0.13,0.483-0.371,0.6-0.833,0.616c-1.563,0.06-1.558,0.079-1.019-1.431
		c1.552-4.345,3.114-8.686,4.634-13.042c0.218-0.626,0.537-0.898,1.159-0.773c0.683,0.136,1.562-0.463,1.967,0.701
		c1.623,4.661,3.307,9.3,4.964,13.948C299.165,472.543,299.167,472.723,299.195,472.896z M292.501,459.964
		c-0.854,2.466-1.618,4.762-2.453,7.032c-0.23,0.624-0.006,0.645,0.485,0.638c1.326-0.018,2.652-0.029,3.977,0.001
		c0.604,0.014,0.633-0.172,0.446-0.688C294.135,464.682,293.354,462.401,292.501,459.964z"/>
	<path fill-rule="evenodd" clip-rule="evenodd" fill="#FFFFFF" d="M149.848,463.553c0-1.583,0.037-3.167-0.016-4.748
		c-0.026-0.795,0.121-1.151,1.04-1.113c0.799,0.033,1.1,0.166,1.079,1.056c-0.064,2.841-0.035,5.684-0.014,8.525
		c0.005,0.643,0.059,1.3,0.205,1.923c0.294,1.26,1.169,1.929,2.422,2.125c3.187,0.5,4.976-0.646,4.981-3.743
		c0.004-2.949,0.06-5.9,0-8.849c-0.019-0.938,0.362-0.99,1.12-1.031c0.878-0.046,0.981,0.3,0.97,1.05
		c-0.042,2.733-0.052,5.469-0.009,8.202c0.082,5.201-3.353,6.633-7.286,6.157c-3.094-0.373-4.315-1.793-4.459-4.914
		c-0.072-1.543-0.013-3.093-0.013-4.64C149.861,463.553,149.854,463.553,149.848,463.553z"/>
	<path fill-rule="evenodd" clip-rule="evenodd" fill="#FFFFFF" d="M427.826,463.586c-0.002-1.691,0.056-3.385-0.023-5.072
		c-0.046-0.996,0.569-0.765,1.109-0.788c0.553-0.023,1.02-0.105,1.002,0.772c-0.057,2.95-0.027,5.901-0.018,8.853
		c0.011,3.441,2.58,5.093,5.78,3.73c1.162-0.495,1.658-1.446,1.743-2.627c0.231-3.197,0.081-6.401,0.078-9.602
		c0-0.864,0.18-1.184,1.104-1.163c0.798,0.018,1.017,0.211,0.999,1.023c-0.059,2.734-0.061,5.471-0.016,8.204
		c0.08,4.91-2.913,6.582-7.035,6.227c-3.222-0.278-4.649-1.884-4.719-5.131C427.801,466.538,427.827,465.062,427.826,463.586z"/>
	<path fill-rule="evenodd" clip-rule="evenodd" fill="#FFFFFF" d="M198.287,465.327c-0.001-2.268,0.024-4.535-0.017-6.802
		c-0.012-0.673,0.192-0.849,0.849-0.837c2.339,0.04,4.679,0.049,7.018,0.001c0.741-0.015,0.798,0.308,0.804,0.9
		c0.006,0.609-0.089,0.925-0.811,0.902c-1.582-0.05-3.168,0.024-4.75-0.034c-0.775-0.028-1.115,0.141-1.045,0.992
		c0.076,0.93,0.066,1.873,0.002,2.805c-0.054,0.783,0.161,1.087,1,1.046c1.436-0.069,2.88,0.02,4.317-0.04
		c0.73-0.03,0.701,0.35,0.697,0.855c-0.004,0.502,0.032,0.893-0.703,0.86c-1.401-0.061-2.808,0.018-4.209-0.036
		c-0.802-0.031-1.181,0.145-1.106,1.054c0.085,1.037,0.086,2.092,0,3.128c-0.08,0.95,0.301,1.14,1.16,1.104
		c1.581-0.064,3.169,0.037,4.749-0.041c0.811-0.041,0.73,0.379,0.743,0.903c0.013,0.56,0.015,0.92-0.764,0.9
		c-2.374-0.059-4.751-0.049-7.125-0.003c-0.695,0.013-0.831-0.218-0.82-0.857C198.311,469.862,198.288,467.595,198.287,465.327z"/>
	<path fill-rule="evenodd" clip-rule="evenodd" fill="#FFFFFF" d="M170.882,465.378c-0.001-2.301,0.02-4.604-0.016-6.904
		c-0.009-0.612,0.176-0.816,0.781-0.803c1.543,0.034,3.098-0.181,4.629,0.087c2.911,0.51,4.361,2.116,4.347,4.715
		c-0.014,2.619-1.772,4.621-4.473,5.13c-0.82,0.154-1.641,0.229-2.465,0.142c-0.584-0.062-0.736,0.153-0.718,0.714
		c0.039,1.185-0.05,2.377,0.032,3.558c0.062,0.884-0.314,1.006-1.061,0.972c-0.656-0.029-1.12,0.034-1.083-0.922
		C170.942,469.84,170.884,467.607,170.882,465.378z M172.979,462.559c0,0.467,0,0.934,0,1.4c-0.001,2.109,0.36,2.406,2.487,2.035
		c0.176-0.03,0.349-0.083,0.522-0.129c1.59-0.413,2.473-1.56,2.471-3.208c-0.002-1.638-0.804-2.634-2.414-3.114
		c-0.854-0.254-1.711-0.107-2.565-0.171c-0.479-0.035-0.507,0.242-0.502,0.601C172.987,460.835,172.98,461.696,172.979,462.559z"/>
	<path fill-rule="evenodd" clip-rule="evenodd" fill="#FFFFFF" d="M231.802,465.315c0-2.268,0.029-4.536-0.018-6.803
		c-0.014-0.68,0.197-0.872,0.845-0.847c1.578,0.063,3.164-0.174,4.737,0.127c2.772,0.529,4.171,2.079,4.175,4.631
		c0.004,2.603-1.724,4.672-4.313,5.153c-0.779,0.146-1.571,0.305-2.357,0.173c-0.874-0.146-1.004,0.238-0.965,0.992
		c0.059,1.148-0.039,2.306,0.031,3.453c0.061,1.001-0.602,0.761-1.133,0.769c-0.507,0.007-1.055,0.195-1.026-0.738
		C231.849,469.924,231.801,467.619,231.802,465.315z M233.921,462.612c0,0.61,0,1.221,0,1.831c0.001,1.609,0.001,1.61,1.661,1.604
		c0.144-0.001,0.288-0.001,0.431-0.012c2.175-0.164,3.397-1.451,3.355-3.53c-0.039-1.89-1.353-3.064-3.5-3.129
		c-1.95-0.059-1.95-0.058-1.948,1.836C233.921,461.679,233.92,462.146,233.921,462.612z"/>
	<path fill-rule="evenodd" clip-rule="evenodd" fill="#FFFFFF" d="M220.156,457.538c0.558,0.04,0.917,0.067,1.275,0.091
		c1.099,0.074,1.429,0.586,1.154,1.674c-0.124,0.487-0.433,0.291-0.665,0.235c-0.992-0.239-1.994-0.293-2.998-0.165
		c-1.032,0.132-1.846,0.578-2.082,1.707c-0.225,1.075,0.26,1.828,1.148,2.319c0.781,0.433,1.614,0.774,2.431,1.142
		c2.615,1.174,3.663,2.679,3.317,4.781c-0.37,2.253-2.019,3.575-4.79,3.83c-1.157,0.106-2.298-0.069-3.433-0.254
		c-1.18-0.19-0.635-1.147-0.607-1.722c0.04-0.852,0.643-0.205,0.947-0.145c1.101,0.219,2.199,0.347,3.319,0.235
		c1.332-0.132,2.072-0.726,2.321-1.854c0.244-1.105-0.184-2.036-1.348-2.651c-1.012-0.536-2.091-0.943-3.116-1.454
		c-1.132-0.564-2.037-1.36-2.299-2.678c-0.508-2.549,1.052-4.601,3.793-4.978C219.128,457.57,219.743,457.565,220.156,457.538z"/>
	<path fill-rule="evenodd" clip-rule="evenodd" fill="#FFFFFF" d="M352.661,457.545c0.821,0.051,1.324,0.097,1.827,0.11
		c0.505,0.013,0.647,0.248,0.661,0.745c0.024,0.854,0.042,1.452-1.161,1.053c-0.8-0.267-1.71-0.207-2.572-0.081
		c-1.048,0.154-1.849,0.661-2.063,1.754c-0.209,1.06,0.339,1.832,1.228,2.303c1.201,0.638,2.479,1.134,3.672,1.782
		c1.504,0.816,2.16,2.137,2.031,3.852c-0.144,1.915-1.223,3.082-2.961,3.703c-1.756,0.627-3.544,0.438-5.324,0.119
		c-1.167-0.21-0.614-1.17-0.584-1.735c0.045-0.832,0.638-0.179,0.95-0.121c1.03,0.188,2.056,0.34,3.105,0.262
		c1.419-0.106,2.332-0.722,2.562-1.736c0.295-1.303-0.183-2.191-1.601-2.938c-1.173-0.617-2.47-0.977-3.574-1.737
		c-1.788-1.231-2.264-3.687-1.014-5.415c0.782-1.08,1.923-1.597,3.2-1.804C351.679,457.556,352.332,457.565,352.661,457.545z"/>
	<path fill-rule="evenodd" clip-rule="evenodd" fill="#FFFFFF" d="M458.295,460.077c-0.796-0.182-1.583-0.396-2.383-0.538
		c-3.171-0.562-5.31,0.902-5.898,4.109c-0.233,1.27-0.248,2.575,0.063,3.852c0.698,2.867,2.745,4.161,5.837,3.693
		c0.602-0.092,1.192-0.276,1.795-0.329c0.264-0.023,0.808-0.484,0.812,0.188c0.004,0.52,0.424,1.218-0.406,1.569
		c-5.069,2.144-9.849-0.514-10.495-5.86c-0.152-1.258-0.034-2.514,0.274-3.74c1.018-4.051,4.21-6.066,8.624-5.303
		C458.72,458.1,458.398,457.677,458.295,460.077z"/>
	<path fill-rule="evenodd" clip-rule="evenodd" fill="#FFFFFF" d="M368.964,466.255c0,1.942-0.044,3.886,0.021,5.826
		c0.027,0.818-0.286,0.959-0.987,0.9c-0.602-0.052-1.164,0.133-1.148-0.882c0.062-3.884-0.002-7.77,0.04-11.653
		c0.009-0.779-0.217-0.989-0.96-0.936c-0.895,0.064-1.8-0.025-2.696,0.029c-0.778,0.048-0.762-0.399-0.757-0.947
		c0.005-0.503-0.028-0.889,0.701-0.88c3.164,0.035,6.33,0.04,9.495,0.001c0.735-0.009,0.701,0.373,0.705,0.871
		c0.005,0.539,0.036,1.004-0.754,0.954c-0.896-0.057-1.804,0.054-2.695-0.03c-0.857-0.081-1.005,0.254-0.982,1.027
		C369.002,462.44,368.964,464.349,368.964,466.255z"/>
	<path fill-rule="evenodd" clip-rule="evenodd" fill="#FFFFFF" d="M336.764,465.315c0-2.266,0.025-4.532-0.016-6.797
		c-0.012-0.662,0.158-0.946,0.833-0.813c0.532,0.105,1.331-0.387,1.319,0.802c-0.045,4.566-0.043,9.135-0.001,13.701
		c0.01,1.012-0.626,0.735-1.145,0.753c-0.512,0.018-1.046,0.188-1.016-0.742C336.814,469.92,336.764,467.617,336.764,465.315z"/>
	<path fill-rule="evenodd" clip-rule="evenodd" fill="#FFFFFF" d="M398.522,465.31c0.001-2.265,0.042-4.532-0.021-6.796
		c-0.023-0.823,0.362-0.863,0.962-0.811c0.555,0.049,1.217-0.251,1.206,0.814c-0.048,4.531-0.052,9.063,0.004,13.593
		c0.013,1.021-0.565,0.825-1.159,0.868c-0.661,0.047-1.041-0.012-1.015-0.873C398.566,469.842,398.522,467.575,398.522,465.31z"/>
	<path fill-rule="evenodd" clip-rule="evenodd" fill="#FFFFFF" d="M467.209,465.306c0.001-2.267,0.043-4.535-0.021-6.8
		c-0.023-0.833,0.378-0.854,0.967-0.799c0.545,0.051,1.219-0.273,1.207,0.806c-0.049,4.533-0.052,9.068,0.004,13.602
		c0.013,1.028-0.576,0.819-1.165,0.862c-0.656,0.048-1.041-0.005-1.015-0.87C467.255,469.841,467.209,467.573,467.209,465.306z"/>
	<path fill-rule="evenodd" clip-rule="evenodd" fill="#FFFFFF" d="M271.614,453.817c0.701,0.019,1.329,0.336,1.916,0.771
		c0.739,0.548,1.489,0.578,2.079-0.171c0.458-0.581,0.721-0.111,1.046,0.082c0.526,0.313,0.149,0.585-0.062,0.848
		c-0.938,1.163-2.353,1.433-3.644,0.594c-0.947-0.616-1.786-1.097-2.687,0.053c-0.365,0.466-0.603-0.116-0.881-0.238
		c-0.37-0.161-0.273-0.432-0.077-0.699C269.869,454.292,270.612,453.862,271.614,453.817z"/>
	<path fill-rule="evenodd" clip-rule="evenodd" fill="#FFFFFF" d="M487.604,455.095c0.13,0.314-0.095,0.349-0.311,0.413
		c-1.133,0.334-2.266,0.667-3.392,1.021c-0.43,0.135-0.604-0.077-0.689-0.435c-0.077-0.324-0.295-0.658,0.268-0.845
		c0.947-0.315,1.855-0.752,2.804-1.065C487.132,453.903,487.552,454.229,487.604,455.095z"/>
</g>
</svg>
